<svg width="560" height="278" viewBox="0 0 560 278" fill="none" xmlns="http://www.w3.org/2000/svg"><g clip-path="url(#a)"><path d="M0 197.887v57.692h7.718V205.14h24.958v50.439h7.717v-57.692H0zM55.244 255.579v-38.242c.013-2.555.451-4.793 1.34-6.744.89-1.951 2.176-3.476 3.86-4.588 1.669-1.113 3.68-1.676 6.047-1.689 1.901.013 3.571.343 4.98 1.002 1.41.646 2.587 1.539 3.504 2.664a11.266 11.266 0 0 1 2.08 3.847c.464 1.428.684 2.94.684 4.52 0 2.156-.479 4.051-1.41 5.7-.916 1.634-2.271 2.925-4.023 3.847-1.765.933-3.886 1.4-6.39 1.414H58.2v7.253h6.814a51.898 51.898 0 0 0 5.008-.207 22.178 22.178 0 0 0 5.022-1.098c1.642-.577 3.202-1.47 4.665-2.693 1.465-1.222 2.78-2.884 3.942-4.986a18.601 18.601 0 0 0 1.628-4.409c.342-1.539.507-3.09.507-4.657 0-2.624-.41-5.096-1.218-7.417a18.301 18.301 0 0 0-3.613-6.209c-1.614-1.8-3.612-3.215-6.007-4.245-2.394-1.03-5.186-1.566-8.374-1.579-2.845 0-5.431.466-7.758 1.373-2.326.92-4.324 2.252-6.008 4.012-1.683 1.758-2.982 3.914-3.9 6.468-.902 2.556-1.367 5.468-1.38 8.751v37.912h7.717zM91.51 226.733c.013 3.31.533 6.442 1.572 9.409a29.554 29.554 0 0 0 4.339 8.16 30.464 30.464 0 0 0 6.54 6.401 30.188 30.188 0 0 0 8.183 4.203c2.941.989 6.034 1.484 9.249 1.497 3.215-.013 6.309-.508 9.264-1.497a30.12 30.12 0 0 0 8.169-4.203 30.445 30.445 0 0 0 6.54-6.401 29.558 29.558 0 0 0 4.339-8.16c1.039-2.967 1.559-6.099 1.573-9.409-.014-3.31-.534-6.456-1.573-9.423a29.478 29.478 0 0 0-4.339-8.146 30.445 30.445 0 0 0-6.54-6.401 30.12 30.12 0 0 0-8.169-4.203c-2.955-.989-6.049-1.484-9.264-1.497-3.215.013-6.308.508-9.249 1.497a30.188 30.188 0 0 0-8.183 4.203 30.464 30.464 0 0 0-6.54 6.401 29.474 29.474 0 0 0-4.339 8.146c-1.04 2.967-1.56 6.113-1.573 9.423zm8.045 0c.013-3.05.575-5.92 1.655-8.612 1.095-2.694 2.614-5.069 4.584-7.144a21.641 21.641 0 0 1 6.924-4.862c2.641-1.182 5.542-1.786 8.675-1.799 3.134.013 6.035.617 8.676 1.799a21.652 21.652 0 0 1 6.924 4.862c1.97 2.075 3.488 4.45 4.583 7.144 1.095 2.692 1.643 5.562 1.656 8.612-.013 3.05-.561 5.92-1.656 8.612-1.095 2.693-2.613 5.069-4.583 7.144a21.683 21.683 0 0 1-6.924 4.862c-2.641 1.182-5.542 1.772-8.676 1.799-3.133-.027-6.034-.617-8.675-1.799a21.672 21.672 0 0 1-6.924-4.862c-1.97-2.075-3.489-4.451-4.584-7.144-1.08-2.692-1.642-5.562-1.655-8.612zM186.9 193.024v51.923h-.493c-3.161-.014-5.979-.536-8.456-1.538-2.463-1.017-4.556-2.391-6.253-4.149a17.982 17.982 0 0 1-3.9-6.003 19.106 19.106 0 0 1-1.342-7.101c0-2.267.397-4.464 1.191-6.594a18.677 18.677 0 0 1 3.421-5.796c1.506-1.731 3.339-3.132 5.501-4.203 2.162-1.086 4.625-1.704 7.375-1.869v-7.747c-3.339.165-6.35.783-9.058 1.841-2.696 1.057-5.077 2.458-7.13 4.189a25.595 25.595 0 0 0-5.157 5.893 27.301 27.301 0 0 0-3.135 6.95 26.524 26.524 0 0 0-1.053 7.336c.014 2.926.452 5.714 1.314 8.338a25.784 25.784 0 0 0 3.735 7.212c1.614 2.197 3.558 4.079 5.816 5.686 2.271 1.608 4.803 2.844 7.594 3.723 2.805.879 5.815 1.319 9.044 1.332h.986v7.17h7.718v-52.17h.41c3.133.014 5.924.535 8.401 1.538 2.463 1.018 4.571 2.391 6.295 4.149a18.141 18.141 0 0 1 3.968 5.989 18.917 18.917 0 0 1 1.368 7.115 18.818 18.818 0 0 1-4.694 12.445c-1.518 1.731-3.352 3.132-5.528 4.204-2.162 1.058-4.61 1.662-7.348 1.813v7.747c3.381-.165 6.432-.783 9.154-1.841 2.724-1.057 5.118-2.458 7.171-4.189a25.856 25.856 0 0 0 5.145-5.893 26.97 26.97 0 0 0 3.106-6.951 26.451 26.451 0 0 0 1.04-7.335c0-2.926-.438-5.714-1.286-8.337-.848-2.624-2.066-5.042-3.681-7.226a24.82 24.82 0 0 0-5.802-5.673c-2.258-1.607-4.817-2.843-7.649-3.722-2.846-.879-5.925-1.319-9.25-1.333h-.82v-6.923H186.9zM230.243 197.474v49.533c-.027 1.649.109 3.146.384 4.493.274 1.346.821 2.43 1.642 3.241.835.81 2.08 1.223 3.721 1.25 1.383-.014 2.546-.357 3.516-1.03.959-.673 1.794-1.594 2.518-2.748.726-1.139 1.425-2.444 2.095-3.887l16.83-35.523c.123-.26.288-.617.492-1.07.206-.453.425-.921.671-1.401.246-.481.493-.879.738-1.209.261-.33.494-.508.726-.522.274.014.452.11.533.302.097.179.138.398.138.632 0 .246 0 .453-.014.631v45.001h7.718v-49.533c.014-1.649-.124-3.145-.438-4.493-.301-1.346-.877-2.43-1.724-3.241-.848-.811-2.067-1.236-3.668-1.25-1.218 0-2.298.275-3.242.838-.945.549-1.821 1.401-2.628 2.528-.807 1.139-1.614 2.569-2.422 4.299l-16.831 35.687c-.616 1.332-1.108 2.362-1.505 3.09-.396.729-.711 1.1-.957 1.114-.247-.014-.411-.097-.493-.276a1.479 1.479 0 0 1-.164-.631v-.66l.082-45.165h-7.718zM279.086 205.14h14.285v50.439h7.718V205.14h14.285v-7.253h-36.288v7.253zM324.797 273.547v-34.533c.014-2.775.288-5.151.835-7.102.548-1.964 1.3-3.585 2.23-4.863.932-1.277 1.971-2.28 3.148-2.994a12.16 12.16 0 0 1 3.613-1.525 15.34 15.34 0 0 1 3.638-.412c1.862 0 3.6.344 5.229 1.003a13.26 13.26 0 0 1 4.281 2.857c1.232 1.237 2.191 2.72 2.888 4.451.699 1.731 1.054 3.653 1.068 5.782-.014 2.624-.603 4.932-1.752 6.924-1.149 1.978-2.764 3.529-4.844 4.642-2.066 1.114-4.502 1.691-7.279 1.704a12.942 12.942 0 0 1-3.298-.398c-1.095-.276-2.216-.742-3.339-1.401-1.135-.647-2.285-1.539-3.462-2.651v7.582a14.342 14.342 0 0 0 3.312 2.115c1.204.563 2.463.989 3.777 1.264 1.313.275 2.613.412 3.913.412 2.066 0 4.091-.289 6.062-.852a21.46 21.46 0 0 0 5.541-2.513 19.247 19.247 0 0 0 4.543-4.094c1.314-1.621 2.34-3.475 3.079-5.577.739-2.101 1.122-4.436 1.136-6.991-.014-2.597-.383-4.987-1.123-7.171-.739-2.184-1.765-4.148-3.078-5.879a20.41 20.41 0 0 0-4.612-4.41 20.814 20.814 0 0 0-5.719-2.76 21.653 21.653 0 0 0-6.404-.962c-1.82-.013-3.694.206-5.61.645-1.916.44-3.763 1.182-5.542 2.212-1.779 1.044-3.38 2.445-4.803 4.231-1.423 1.772-2.545 3.983-3.379 6.649-.821 2.651-1.259 5.824-1.273 9.504v35.111h7.224zM404.116 227.722c-1.3-2.83-2.955-5.165-4.939-7.019-1.984-1.855-4.188-3.242-6.595-4.149a21.168 21.168 0 0 0-7.513-1.359c-2.914.013-5.597.535-8.072 1.58-2.477 1.029-4.639 2.471-6.486 4.327a19.94 19.94 0 0 0-4.311 6.538c-1.04 2.499-1.56 5.22-1.574 8.158.014 2.872.493 5.481 1.437 7.859.944 2.375 2.257 4.463 3.941 6.263a20.686 20.686 0 0 0 5.87 4.34 20.937 20.937 0 0 0 4.474 1.594c1.547.37 3.121.549 4.721.549 1.862 0 3.681-.206 5.488-.646a19.656 19.656 0 0 0 5.104-1.991c.78-.426 1.682-1.045 2.722-1.854 1.026-.811 2.053-1.855 3.079-3.105 1.027-1.264 1.902-2.788 2.668-4.574.753-1.772 1.231-3.846 1.465-6.208l-7.307-.908c-.069 1.58-.356 3.035-.876 4.41a13.099 13.099 0 0 1-2.08 3.626 11.25 11.25 0 0 1-2.956 2.596 11.955 11.955 0 0 1-3.585 1.36 18.26 18.26 0 0 1-3.886.371c-1.245 0-2.449-.164-3.64-.48a13.58 13.58 0 0 1-3.338-1.415c-1.109-.687-2.107-1.594-2.997-2.707-.889-1.112-1.587-2.431-2.107-3.956-.534-1.51-.794-3.227-.808-5.124 0-1.964.315-3.776.931-5.439.616-1.662 1.478-3.104 2.613-4.34a12.14 12.14 0 0 1 4.078-2.872c1.574-.672 3.339-1.016 5.268-1.029a14.82 14.82 0 0 1 2.943.26c1.039.193 2.065.564 3.119 1.113 1.04.549 2.066 1.36 3.051 2.418l-19.457 10.879 2.956 5.769 26.599-14.835zM412.729 255.579h7.224v-18.05h18.719v18.05h7.225v-39.56h-7.225v14.587h-18.719v-14.587h-7.224v39.56zM460.257 216.019h-7.224v34.944c-.014.413.013.907.082 1.512a5.81 5.81 0 0 0 .479 1.799c.259.59.683 1.1 1.272 1.497.588.398 1.396.619 2.435.632.849-.013 1.601-.206 2.232-.576a6.365 6.365 0 0 0 1.683-1.471c.506-.617.971-1.291 1.422-2.018.438-.729.917-1.47 1.396-2.199l14.285-21.181c.069-.124.192-.329.37-.618.177-.288.356-.59.561-.907.192-.316.355-.576.465-.783a.32.32 0 0 0 .082-.151c.014-.054.041-.096.083-.096.041 0 .068.014.068.055a.282.282 0 0 1 .013.11v29.011h7.226v-35.44c.013-.192-.014-.536-.07-1.057a5.615 5.615 0 0 0-.465-1.662c-.259-.604-.683-1.113-1.273-1.553-.588-.426-1.409-.659-2.462-.672-.848.013-1.601.205-2.257.576a6.722 6.722 0 0 0-1.738 1.47 18.825 18.825 0 0 0-1.437 2.019c-.452.728-.917 1.47-1.382 2.198l-14.204 21.429c-.068.096-.177.288-.356.577-.191.289-.369.604-.574.933-.191.331-.342.592-.465.797a.32.32 0 0 0-.082.151c-.014.056-.041.097-.082.097-.042 0-.069-.014-.069-.055-.014-.028-.014-.069-.014-.111v-.411-28.846zM494.324 255.579h7.225v-18.05h18.719v18.05h7.224v-39.56h-7.224v14.587h-18.719v-14.587h-7.225v39.56zM534.631 255.579h7.225v-22.5c-.014-.728 0-1.58.027-2.527a13.62 13.62 0 0 1 .356-2.857 6.503 6.503 0 0 1 1.177-2.527c.602-.729 1.286-1.25 2.026-1.567a7.537 7.537 0 0 1 2.326-.577 25 25 0 0 1 2.462-.082H560v-6.923h-8.292c-1.259-.013-2.491 0-3.694.055a21.31 21.31 0 0 0-3.545.412 12.4 12.4 0 0 0-3.297 1.168c-1.068.549-2.066 1.319-3.01 2.321-.89 1.003-1.588 2.075-2.08 3.214-.479 1.154-.835 2.309-1.04 3.489a25.5 25.5 0 0 0-.369 3.407c-.042 1.099-.055 2.102-.042 2.994v22.5z" fill="#0A83B2"/><path d="M330.909 264.671v4.799c-.003.395.012.797.05 1.213.039.415.123.815.258 1.203.133.384.339.73.622 1.036.28.31.661.55 1.142.729.206.074.42.128.639.16.217.031.435.045.65.045.178 0 .355-.005.532-.018.177-.012.354-.037.532-.075a3.05 3.05 0 0 0 .797-.303c.215-.125.389-.262.527-.406.133-.144.242-.281.319-.415v1.031c.007.227.004.459-.008.702-.013.241-.06.478-.144.713-.084.237-.23.456-.445.666a1.99 1.99 0 0 1-.699.425 3.864 3.864 0 0 1-.835.2 6.185 6.185 0 0 1-.8.049 5.66 5.66 0 0 1-1.444-.187 7.457 7.457 0 0 1-1.413-.525l-.168 1.631c.308.115.638.222.996.319.358.1.728.181 1.114.243.383.06.769.091 1.158.094.352 0 .71-.034 1.076-.103a5.296 5.296 0 0 0 1.055-.313c.337-.144.642-.322.912-.54.287-.241.517-.493.692-.76.17-.268.301-.549.389-.84.083-.293.143-.594.171-.906.028-.312.04-.634.038-.962v-8.905h-1.645v4.499c.004.175-.003.378-.018.609a3.84 3.84 0 0 1-.112.719 2.578 2.578 0 0 1-.296.722 2.14 2.14 0 0 1-1.182.953 2.322 2.322 0 0 1-.707.109 2.745 2.745 0 0 1-.607-.057 1.627 1.627 0 0 1-.55-.223 1.893 1.893 0 0 1-.577-.579 2.433 2.433 0 0 1-.279-.709 4.544 4.544 0 0 1-.091-.775c-.006-.263-.009-.519-.006-.769v-4.499h-1.643zm18.073 0v2.7c-.003.262.011.543.05.84.037.297.117.59.245.881.128.288.324.55.591.788.268.237.629.428 1.086.572.455.14 1.031.215 1.725.218h1.755v3h1.644v-8.999h-1.644v4.424h-1.456c-.467 0-.85-.031-1.149-.087-.298-.06-.529-.141-.697-.247a.976.976 0 0 1-.358-.366 1.263 1.263 0 0 1-.13-.456 4.497 4.497 0 0 1-.019-.512v-2.756h-1.643zm26.214 2.662a5.003 5.003 0 0 0-1.123-1.597 4.539 4.539 0 0 0-1.501-.944 4.827 4.827 0 0 0-1.708-.308 4.71 4.71 0 0 0-1.836.359 4.483 4.483 0 0 0-1.476.984c-.42.425-.747.918-.98 1.487a4.833 4.833 0 0 0-.358 1.856c.003.653.112 1.247.327 1.788a4.49 4.49 0 0 0 .896 1.424 4.691 4.691 0 0 0 3.427 1.474c.423 0 .837-.045 1.248-.146a4.467 4.467 0 0 0 1.162-.453c.177-.096.382-.238.619-.422a4.67 4.67 0 0 0 .7-.705c.233-.288.432-.635.606-1.041.172-.403.28-.875.334-1.413l-1.663-.206a3.183 3.183 0 0 1-.199 1.003 2.98 2.98 0 0 1-.473.826c-.196.242-.42.436-.672.59a2.724 2.724 0 0 1-.816.309 4.177 4.177 0 0 1-.883.084 3.081 3.081 0 0 1-1.588-.431 2.715 2.715 0 0 1-.681-.615 2.953 2.953 0 0 1-.479-.901 3.576 3.576 0 0 1-.185-1.165c0-.446.072-.859.212-1.237a2.94 2.94 0 0 1 .595-.987c.258-.279.57-.497.927-.654.358-.153.76-.231 1.199-.234.211-.003.435.016.669.06.237.043.47.128.709.253.237.125.471.309.695.55l-4.426 2.474.671 1.313 6.051-3.375zm12.789-.281c.233-.218.479-.404.74-.55.265-.147.532-.26.804-.331.27-.076.531-.113.789-.113a3.73 3.73 0 0 1 .788.079 2.702 2.702 0 0 1 1.289.634c.177.156.339.346.485.575.146.225.261.487.349.787.087.3.131.641.134 1.019-.003.43-.063.803-.172 1.118a2.927 2.927 0 0 1-.868 1.3 2.805 2.805 0 0 1-.36.262 3.178 3.178 0 0 1-.813.338 3.412 3.412 0 0 1-.868.112c-.187 0-.374-.018-.554-.052a3.377 3.377 0 0 1-.53-.154c-.448-.181-.803-.431-1.058-.743a3.007 3.007 0 0 1-.564-1.053 5.526 5.526 0 0 1-.223-1.201 14.194 14.194 0 0 1-.041-1.183v-1.762c.003-.785.099-1.426.29-1.932.19-.503.444-.897.768-1.18a2.963 2.963 0 0 1 1.093-.622c.405-.128.824-.21 1.26-.241a14.56 14.56 0 0 1 1.277-.037h2.204v-1.575h-2.317c-.248-.003-.545 0-.883.012-.343.009-.71.047-1.099.113a5.863 5.863 0 0 0-1.186.325 4.587 4.587 0 0 0-1.143.656c-.364.284-.69.65-.974 1.099-.286.451-.513 1.001-.678 1.654-.168.656-.252 1.43-.255 2.328v1.256c-.003.349.003.724.025 1.125.021.402.077.811.171 1.23.093.422.248.834.467 1.24.215.407.517.787.906 1.148.124.115.283.237.47.365.189.128.41.249.662.365a4.5 4.5 0 0 0 .869.282 5.3 5.3 0 0 0 2.468-.073 4.406 4.406 0 0 0 1.264-.565c.389-.259.74-.591 1.051-.993.312-.406.558-.866.741-1.381a4.95 4.95 0 0 0 .28-1.657 4.878 4.878 0 0 0-.301-1.702 4.609 4.609 0 0 0-.841-1.418 4.242 4.242 0 0 0-1.285-1.004 4.116 4.116 0 0 0-1.046-.362 5.405 5.405 0 0 0-1.101-.106c-.278 0-.558.031-.848.093a4.184 4.184 0 0 0-1.636.731v1.744zm17.418 6.618h1.644v-4.106h4.257v4.106h1.644v-8.999h-1.644v3.319h-4.257v-3.319h-1.644v8.999zm19.586-8.999h-1.644v4.911c-.002.226.007.482.029.766.021.288.071.587.146.9.074.313.193.615.355.916.158.3.376.575.651.827.277.251.622.456 1.042.623.243.09.492.155.744.19.252.038.507.052.768.052.349.005.688-.03 1.024-.095.337-.066.654-.179.956-.335.298-.163.564-.362.791-.597.227-.237.416-.497.572-.78a3.808 3.808 0 0 0 .468-1.772 3.126 3.126 0 0 0-.994-2.287 3.452 3.452 0 0 0-1.101-.688 3.845 3.845 0 0 0-1.379-.25c-.284 0-.579.041-.884.125a3.518 3.518 0 0 0-.871.362v1.725c.139-.149.301-.272.484-.366.184-.093.378-.162.579-.206.203-.044.402-.065.598-.065.395.003.735.093 1.021.265.29.176.51.404.666.694.156.287.233.606.237.953.003.194-.035.394-.106.597a1.626 1.626 0 0 1-.98.981c-.265.108-.586.162-.968.165-.411-.003-.753-.057-1.024-.162a1.629 1.629 0 0 1-1.003-.988 2.674 2.674 0 0 1-.146-.627 4.524 4.524 0 0 1-.031-.585v-5.249zm6.798 0v8.999h1.643v-8.999h-1.643zm13.683 0h-1.643v7.798c-.002.104 0 .232.006.385.01.15.041.304.094.456a.831.831 0 0 0 .286.385c.137.103.33.159.585.161a.994.994 0 0 0 .508-.131c.143-.084.27-.196.383-.334.115-.14.22-.293.324-.459.099-.165.207-.334.316-.5l3.25-4.817.083-.141c.042-.066.081-.134.129-.207.043-.071.081-.131.106-.178a.08.08 0 0 0 .018-.034c.003-.013.009-.022.019-.022s.015.003.015.013c.003.006.003.015.003.025v6.599h1.644v-7.799a5.27 5.27 0 0 0-.006-.384c-.01-.15-.04-.304-.094-.457a.831.831 0 0 0-.286-.385c-.137-.102-.33-.158-.585-.161a1.034 1.034 0 0 0-.511.131 1.462 1.462 0 0 0-.389.334 4.234 4.234 0 0 0-.329.459c-.103.166-.209.335-.321.501l-3.231 4.874c-.016.021-.04.065-.081.131-.043.066-.084.137-.131.212l-.105.181a.082.082 0 0 0-.02.035c-.003.012-.008.022-.018.022-.009 0-.016-.004-.016-.012-.003-.007-.003-.017-.003-.026v-.093-6.562zm3.866-3.768c-.065.281-.18.512-.348.697a1.57 1.57 0 0 1-.585.407 1.934 1.934 0 0 1-1.416 0 1.553 1.553 0 0 1-.589-.407 1.521 1.521 0 0 1-.348-.697h-1.326c.103.481.286.897.554 1.24.268.341.607.607 1.015.788.407.184.874.274 1.4.278.526-.004.992-.094 1.4-.278a2.633 2.633 0 0 0 1.015-.788c.268-.343.452-.759.554-1.24h-1.326zm29.073 3.768v5.362c-.003.257.006.524.027.809.023.281.075.565.156.846.084.285.215.55.392.804.178.253.421.478.732.672.164.099.364.186.592.265.227.075.5.134.815.175.314.044.688.066 1.113.066h3.811v2.343h1.418v-3.918h-5.116c-.27 0-.505-.01-.698-.025a2.96 2.96 0 0 1-.484-.081 1.351 1.351 0 0 1-.349-.138c-.256-.147-.439-.321-.548-.525a1.744 1.744 0 0 1-.194-.656 6.228 6.228 0 0 1-.024-.712v-5.287h-1.643zm7.488 6.749v-6.749h-1.643v6.749h1.643zm20.127-4.087a5.034 5.034 0 0 0-1.123-1.597 4.539 4.539 0 0 0-1.501-.944 4.836 4.836 0 0 0-1.709-.308 4.718 4.718 0 0 0-1.836.359 4.479 4.479 0 0 0-2.456 2.471 4.833 4.833 0 0 0-.357 1.856c.002.653.112 1.247.326 1.788.215.54.514 1.015.896 1.424a4.696 4.696 0 0 0 3.427 1.474c.424 0 .838-.045 1.249-.146a4.46 4.46 0 0 0 1.161-.453c.177-.096.382-.238.619-.422a4.67 4.67 0 0 0 .7-.705c.234-.288.433-.635.607-1.041.171-.403.28-.875.333-1.413l-1.662-.206a3.211 3.211 0 0 1-.199 1.003 2.98 2.98 0 0 1-.473.826 2.638 2.638 0 0 1-.672.59 2.735 2.735 0 0 1-.816.309 4.187 4.187 0 0 1-.884.084 3.097 3.097 0 0 1-1.588-.431 2.732 2.732 0 0 1-.681-.615 2.953 2.953 0 0 1-.479-.901 3.577 3.577 0 0 1-.184-1.165c0-.446.072-.859.212-1.237.14-.378.336-.706.594-.987a2.76 2.76 0 0 1 .928-.654 3.08 3.08 0 0 1 1.198-.234c.212-.003.436.016.669.06a2.496 2.496 0 0 1 1.404.803l-4.426 2.474.672 1.313 6.051-3.375zm10.472 6.337h1.643v-4.106h4.258v4.106h1.644v-8.999h-1.644v3.319h-4.258v-3.319h-1.643v8.999zm17.159-8.999v1.575h2.819v7.424h1.644v-7.424h2.819v-1.575h-7.282zm18.539 13.086v-7.855c.002-.632.065-1.172.19-1.616.124-.447.295-.815.507-1.106.211-.291.449-.519.716-.681.265-.165.538-.278.822-.347.282-.065.559-.097.828-.094a2.993 2.993 0 0 1 2.162.878c.281.281.499.619.657 1.013.159.393.24.831.243 1.315-.003.596-.137 1.122-.398 1.574a2.744 2.744 0 0 1-1.102 1.057c-.47.253-1.024.384-1.656.387a2.975 2.975 0 0 1-.75-.09 2.898 2.898 0 0 1-.76-.319 4.2 4.2 0 0 1-.787-.603v1.725c.228.193.476.352.753.481.275.128.56.225.859.287.299.063.594.093.891.093.47 0 .93-.065 1.379-.192a4.92 4.92 0 0 0 1.259-.572 4.36 4.36 0 0 0 1.034-.932c.299-.368.533-.79.7-1.268a4.856 4.856 0 0 0 .259-1.591 5.121 5.121 0 0 0-.256-1.631 4.658 4.658 0 0 0-.7-1.336 4.603 4.603 0 0 0-2.35-1.631 4.908 4.908 0 0 0-1.456-.219 5.434 5.434 0 0 0-1.277.147c-.435.1-.856.268-1.26.502a3.962 3.962 0 0 0-1.092.962c-.324.404-.579.907-.769 1.513-.187.603-.286 1.325-.289 2.162v7.987h1.643z" fill="#727376"/><path fill-rule="evenodd" clip-rule="evenodd" d="M225.1 133.948c-.099-.098-.199-.194-.297-.293.1.097.195.197.297.293zm-2.818-2.947c-12.609-13.912-20.297-32.4-20.297-52.685 0-17.2 5.532-33.104 14.899-46.026 10.913.93 20.733 7.77 19.341 19.922-.659 5.765-4.979 5.092-6.148 7.178-12.706 10.889-28.898 47.438-7.795 71.611z" fill="#15647D"/><path fill-rule="evenodd" clip-rule="evenodd" d="M279.999 0c43.079 0 78.015 35.07 78.015 78.316 0 1.027-.026 2.048-.066 3.065l-28.552-23.255C330.655 22.596 317.194.483 279.999 0z" fill="url(#b)"/><path fill-rule="evenodd" clip-rule="evenodd" d="M279.999 0c39.059 0 48.151 30.492 37.32 48.135-9.037 14.722-40.55 12.872-55.289 8.663-27.782-7.934-61.579 13.706-57.156 42.7-2.13-5.973-2.889-18.456-2.889-21.182C201.985 35.071 236.921 0 279.999 0z" fill="url(#c)"/><path fill-rule="evenodd" clip-rule="evenodd" d="M279.999 0c11.926 0 32.807 19.463 17.622 36.784-8.833 10.075-28.169 5.177-40.373 2.084-17.107-4.335-43.226-.857-50.891 13.557C217.01 21.9 245.96 0 279.999 0z" fill="url(#d)"/><path fill-rule="evenodd" clip-rule="evenodd" d="M279.999 156.632c43.079 0 78.015-35.071 78.015-78.316 0-26.26-12.884-49.505-32.649-63.714 14.433 15.917 11.272 31.204 5.767 40.864-11.273 19.778-47.796 23.7-73.372 16.397-17.746-5.069-32.53 3.871-39.567 17.369-7.038 13.497-6.329 31.551 6.907 44.716 14.098 14.02 33.492 22.684 54.899 22.684z" fill="url(#e)"/><path fill-rule="evenodd" clip-rule="evenodd" d="M279.999 156.632c43.079 0 78.015-35.07 78.015-78.316 0-11.841-2.621-23.069-7.31-33.132 4.821 11.129 2.372 21.448-1.455 28.779-10.799 20.685-48.058 26.092-74.526 19.583-18.367-4.515-33.171 5.202-39.87 19.292-4.897 10.304-2.833 28.92 10.116 35.467 10.533 5.326 22.433 8.327 35.03 8.327z" fill="url(#f)"/><path fill-rule="evenodd" clip-rule="evenodd" d="M279.999 156.632c37.527 0 68.87-26.613 76.326-62.06a31.99 31.99 0 0 1-2.866 6.654c-9.892 17.356-41.942 20.798-64.385 14.389-11.747-3.354-22.013.285-28.999 7.358-10.075 10.204-6.857 33.659 19.924 33.659z" fill="url(#g)"/></g><defs><linearGradient id="b" x1="321.672" y1="11.767" x2="331.219" y2="55.847" gradientUnits="userSpaceOnUse"><stop stop-color="#EA583A"/><stop offset="1" stop-color="#985440"/></linearGradient><radialGradient id="c" cx="0" cy="0" r="1" gradientUnits="userSpaceOnUse" gradientTransform="rotate(140.14 147.045 71.898) scale(226.538 229.722)"><stop stop-color="#91D8F7"/><stop offset=".58" stop-color="#3BB9EB"/><stop offset="1" stop-color="#0A83B2"/></radialGradient><radialGradient id="d" cx="0" cy="0" r="1" gradientUnits="userSpaceOnUse" gradientTransform="matrix(-418.36733 216.4906 -229.7697 -444.02915 318.417 23.604)"><stop stop-color="#C7EAFB"/><stop offset=".58" stop-color="#91D8F7"/><stop offset="1" stop-color="#3BB9EB"/></radialGradient><radialGradient id="e" cx="0" cy="0" r="1" gradientUnits="userSpaceOnUse" gradientTransform="matrix(150.44793 -126.56287 126.90792 150.8581 258.489 122.533)"><stop stop-color="#FFCC29"/><stop offset=".271" stop-color="#FCB438"/><stop offset=".69" stop-color="#F58634"/><stop offset="1" stop-color="#F89F3A"/></radialGradient><radialGradient id="f" cx="0" cy="0" r="1" gradientUnits="userSpaceOnUse" gradientTransform="rotate(-41.102 288.207 -277.966) scale(208.158 208.658)"><stop stop-color="#FFDD21"/><stop offset=".271" stop-color="#FFD532"/><stop offset=".69" stop-color="#FDB92E"/><stop offset="1" stop-color="#FFC636"/></radialGradient><radialGradient id="g" cx="0" cy="0" r="1" gradientUnits="userSpaceOnUse" gradientTransform="rotate(-45.96 288.288 -239.29) scale(364.649 364.467)"><stop stop-color="#FFF8AF"/><stop offset=".271" stop-color="#FFE970"/><stop offset=".69" stop-color="#FFD657"/><stop offset="1" stop-color="#FFE29E"/></radialGradient><clipPath id="a"><path fill="#fff" d="M0 0h560v278H0z"/></clipPath></defs></svg>