<svg width="260" height="93" viewBox="0 0 260 93" fill="none" xmlns="http://www.w3.org/2000/svg"><g clip-path="url(#a)" fill-rule="evenodd" clip-rule="evenodd"><path d="M182.78 40.52V78h-5V45.24h-17.23V78h-5V40.52h27.23zM222 73a19.397 19.397 0 0 1-29.942-2.924 19.394 19.394 0 0 1-3.238-10.836 19.42 19.42 0 1 1 38.83 0A18.804 18.804 0 0 1 222 73zm-24.1-3.4a14.74 14.74 0 0 0 20.61 0 14.165 14.165 0 0 0 4.16-10.36 14.231 14.231 0 0 0-4.16-10.42 14.74 14.74 0 0 0-20.61 0 14.236 14.236 0 0 0-4.15 10.42 14.17 14.17 0 0 0 4.15 10.36zm49.83-14.38a11.39 11.39 0 0 1 10.755 7.038 11.445 11.445 0 0 1 0 8.774A11.45 11.45 0 0 1 256 74.75a11.408 11.408 0 0 1-8.26 3.25h-14.09V40.52h22.5v4.72h-17.51v10l9.09-.02zm0 18.1a6.722 6.722 0 0 0 6.72-6.72 6.72 6.72 0 0 0-6.72-6.72h-9.1v13.47l9.1-.03z" fill="#080200"/><path d="M7.79 26.54h130.39V85a7.79 7.79 0 0 1-7.79 7.79H7.79A7.79 7.79 0 0 1 0 85V34.33a7.79 7.79 0 0 1 7.79-7.79z" fill="#5BC5F2"/><path d="M154.38 19.48C157 16 158.26 10 156.22 0 130.48 4 136 17.91 138.46 22.26a88.993 88.993 0 0 1 13.32-16.12 98.191 98.191 0 0 0-8.86 15.71c3.47-4 7.54-4.21 11.46-2.37zm8.1 8.16c-11.28 12.72-17.33 5.68-19.58 1.86a29.997 29.997 0 0 1 10.88-1.5 33.47 33.47 0 0 0-11.51-1.45c1.37-3.29 7.01-13 20.21 1.09z" fill="#85BC22"/><path d="M78.76 41.08h3.39v3.39h-3.39v-3.39zM30.21 62.32l8.42-21.24h5.6L31.29 71.57c-1.9 4.47-4.39 6.45-9 6.63a18.768 18.768 0 0 1-7-1.24v-4.27c4.37 1.28 4.94 1.43 6.5 1.4 2.13 0 3.93-1.14 6-5.92L15.32 41.08h5.41l9.48 21.24zM66.92 78.2h-4.67v-9.87a24.55 24.55 0 0 1-6.29.81c-6.55 0-10.44-3.38-10.5-10.06V51h4.65v8.27c0 4.06 2 5.83 5.85 5.83a24.55 24.55 0 0 0 6.29-.81V51h4.67v27.2zm18.6 0c-8.72 0-12.94-5.72-12.94-13.69 0-7 4.51-13.49 12.34-13.49 9.76 0 11.61 7.13 11.61 14.88H76.88a8.461 8.461 0 0 0 8.79 8.49A9.24 9.24 0 0 0 93.22 71l3 2.13c-2.4 3.38-5.967 5.07-10.7 5.07zm-.6-23.51c-4.55 0-7.36 3.57-7.88 7.54h15.19c0-4.07-2.75-7.54-7.31-7.54zm37.93.09h-9.12V78.2h-4.65V54.78h-9V51h22.72v3.76l.05.02zM87 41.11h3.39v3.39H87v-3.39z" fill="#fff"/></g><defs><clipPath id="a"><path fill="#fff" d="M0 0h259.36v92.76H0z"/></clipPath></defs></svg>